<svg width="165" height="56" viewBox="0 0 165 56" fill="none" xmlns="http://www.w3.org/2000/svg">
<g id="Download_on_the_App_Store_Badge_US-UK_RGB_wht_092917 1" clip-path="url(#clip0_0_1899)">
<g id="Group">
<g id="Group_2">
<g id="Group_3">
<path id="Vector" d="M151.86 0.000124479H13.147C12.6414 0.000124479 12.1418 0.000124479 11.6375 0.00292448C11.2154 0.00572448 10.7966 0.0138585 10.3704 0.0207045C9.44452 0.031767 8.52081 0.114471 7.60731 0.268098C6.69509 0.42507 5.81144 0.721007 4.98626 1.1459C4.16209 1.57438 3.40902 2.13116 2.75437 2.79602C2.09628 3.45902 1.54772 4.22535 1.12977 5.06555C0.710665 5.90408 0.420057 6.80264 0.267981 7.7302C0.11446 8.65658 0.0318494 9.59365 0.0208897 10.533C0.00809391 10.9622 0.00674263 11.3929 0 11.8222V44.1822C0.00674263 44.6169 0.00809391 45.038 0.0208897 45.4728C0.0318528 46.4121 0.114464 47.3491 0.267981 48.2755C0.419637 49.2036 0.710262 50.1027 1.12977 50.9415C1.54753 51.779 2.09617 52.5422 2.75437 53.2015C3.40654 53.8693 4.16009 54.4265 4.98626 54.8517C5.81144 55.2777 6.69499 55.5754 7.60731 55.7348C8.52097 55.8872 9.44458 55.97 10.3704 55.9823C10.7966 55.9919 11.2154 55.9973 11.6375 55.9973C12.1418 56.0001 12.6414 56.0001 13.147 56.0001H151.86C152.356 56.0001 152.86 56.0001 153.355 55.9973C153.775 55.9973 154.206 55.9919 154.626 55.9823C155.55 55.9706 156.472 55.8879 157.384 55.7348C158.299 55.5743 159.186 55.2767 160.015 54.8517C160.841 54.4262 161.593 53.8691 162.245 53.2015C162.902 52.5396 163.451 51.777 163.874 50.9415C164.291 50.102 164.579 49.203 164.728 48.2755C164.882 47.349 164.967 46.4122 164.984 45.4728C164.989 45.038 164.989 44.6169 164.989 44.1822C165 43.6735 165 43.1677 165 42.6508V13.3507C165 12.838 165 12.3294 164.989 11.8222C164.989 11.3929 164.989 10.9622 164.984 10.5329C164.967 9.59352 164.882 8.65665 164.728 7.73014C164.578 6.80312 164.29 5.90463 163.874 5.06549C163.023 3.3814 161.674 2.01056 160.015 1.14577C159.186 0.721919 158.299 0.426061 157.384 0.267972C156.472 0.113668 155.55 0.0309353 154.626 0.0205085C154.206 0.0136765 153.775 0.00547248 153.355 0.00274248C152.86 -5.75209e-05 152.356 0.000124479 151.86 0.000124479Z" fill="#2A3356"/>
<path id="Vector_2" d="M11.6443 54.7751C11.2242 54.7751 10.8142 54.7696 10.3974 54.7601C9.53392 54.7487 8.67247 54.6724 7.8201 54.5318C7.02531 54.3928 6.25538 54.1343 5.53569 53.7647C4.8226 53.3982 4.17221 52.9177 3.60942 52.3415C3.03849 51.7721 2.56317 51.1116 2.20228 50.3864C1.83742 49.6564 1.58492 48.874 1.45356 48.0663C1.31171 47.1985 1.23496 46.3209 1.22398 45.4413C1.21524 45.146 1.2038 44.163 1.2038 44.163V11.8222C1.2038 11.8222 1.21599 10.8542 1.22405 10.5698C1.23457 9.69157 1.31087 8.81541 1.45229 7.94892C1.58389 7.13905 1.83659 6.35435 2.20165 5.62198C2.56121 4.89722 3.03389 4.2363 3.60139 3.66485C4.16824 3.08797 4.82071 2.60494 5.53502 2.23339C6.25305 1.86503 7.02153 1.60832 7.81471 1.47188C8.66988 1.32987 9.53432 1.25309 10.4008 1.24219L11.6449 1.2251H153.348L154.607 1.24288C155.466 1.25324 156.323 1.32933 157.17 1.4705C157.971 1.60866 158.748 1.86716 159.474 2.23749C160.905 2.98628 162.069 4.17093 162.804 5.6254C163.163 6.35271 163.412 7.13101 163.542 7.93388C163.685 8.80749 163.765 9.69053 163.781 10.576C163.785 10.9725 163.785 11.3983 163.785 11.8222C163.796 12.3472 163.796 12.8469 163.796 13.3507V42.6508C163.796 43.1594 163.796 43.6557 163.785 44.1561C163.785 44.6114 163.785 45.0284 163.78 45.4577C163.764 46.3273 163.685 47.1946 163.544 48.0526C163.416 48.8661 163.165 49.6546 162.8 50.3906C162.436 51.108 161.964 51.7627 161.399 52.3306C160.836 52.9099 160.185 53.3932 159.47 53.7621C158.746 54.1345 157.97 54.3939 157.17 54.5318C156.318 54.6731 155.456 54.7495 154.593 54.7601C154.189 54.7696 153.766 54.7751 153.355 54.7751L151.86 54.7779L11.6443 54.7751Z" fill="white"/>
</g>
<g id="&#60;Group&#62;">
<g id="&#60;Group&#62;_2">
<g id="&#60;Group&#62;_3">
<path id="&#60;Path&#62;" d="M34.4669 27.8451C34.4824 26.63 34.8003 25.4385 35.3911 24.3816C35.9818 23.3247 36.8263 22.4368 37.846 21.8003C37.1982 20.8611 36.3437 20.0881 35.3503 19.5428C34.3569 18.9975 33.2519 18.6949 32.1231 18.659C29.7153 18.4024 27.3811 20.1219 26.1541 20.1219C24.9033 20.1219 23.0142 18.6845 20.9799 18.727C19.6641 18.7702 18.3817 19.1587 17.2577 19.8547C16.1338 20.5506 15.2065 21.5304 14.5663 22.6984C11.7933 27.5732 13.8617 34.7375 16.5181 38.678C17.8472 40.6075 19.4005 42.7628 21.4329 42.6864C23.4218 42.6026 24.1646 41.3987 26.5653 41.3987C28.9438 41.3987 29.6406 42.6864 31.7143 42.6378C33.8485 42.6026 35.1931 40.6997 36.4755 38.7519C37.4305 37.3771 38.1653 35.8576 38.6528 34.2497C37.4129 33.7172 36.3548 32.826 35.6104 31.6871C34.8661 30.5482 34.4684 29.212 34.4669 27.8451Z" fill="#2A3356"/>
<path id="&#60;Path&#62;_2" d="M30.5501 16.0676C31.7138 14.6493 32.2871 12.8263 32.1482 10.9857C30.3705 11.1753 28.7283 12.038 27.549 13.4019C26.9724 14.0682 26.5307 14.8433 26.2493 15.683C25.968 16.5227 25.8523 17.4105 25.9091 18.2956C26.7982 18.3049 27.6779 18.1092 28.4818 17.7232C29.2858 17.3373 29.9929 16.7712 30.5501 16.0676Z" fill="#2A3356"/>
</g>
</g>
<g id="Group_4">
<path id="Vector_3" d="M58.3283 37.9956H51.8016L50.2342 42.6947H47.4697L53.6517 25.3094H56.5239L62.7059 42.6947H59.8943L58.3283 37.9956ZM52.4775 35.8273H57.651L55.1006 28.2011H55.0292L52.4775 35.8273Z" fill="#2A3356"/>
<path id="Vector_4" d="M76.0568 36.3576C76.0568 40.2965 73.9804 42.8272 70.847 42.8272C70.0532 42.8693 69.2638 42.6837 68.5692 42.2915C67.8745 41.8993 67.3027 41.3164 66.9191 40.6096H66.8598V46.8877H64.2974V30.0194H66.7777V32.1276H66.8248C67.226 31.4241 67.8075 30.8442 68.5075 30.4497C69.2074 30.0551 69.9996 29.8605 70.7998 29.8867C73.9683 29.8868 76.0568 32.4297 76.0568 36.3576ZM73.4229 36.3576C73.4229 33.7914 72.1168 32.1043 70.1239 32.1043C68.166 32.1043 66.8491 33.827 66.8491 36.3576C66.8491 38.9116 68.166 40.6219 70.1239 40.6219C72.1168 40.6219 73.4229 38.9471 73.4229 36.3576H73.4229Z" fill="#2A3356"/>
<path id="Vector_5" d="M89.7977 36.3576C89.7977 40.2965 87.7206 42.8272 84.5872 42.8272C83.7935 42.8693 83.0041 42.6837 82.3094 42.2915C81.6148 41.8993 81.0429 41.3164 80.6594 40.6096H80.6001V46.8877H78.0376V30.0194H80.5179V32.1276H80.5651C80.9662 31.4241 81.5477 30.8442 82.2477 30.4497C82.9476 30.0551 83.7399 29.8605 84.54 29.8867C87.7085 29.8868 89.7977 32.4297 89.7977 36.3576ZM87.1632 36.3576C87.1632 33.7914 85.857 32.1043 83.8641 32.1043C81.9063 32.1043 80.5893 33.827 80.5893 36.3576C80.5893 38.9116 81.9063 40.6219 83.8641 40.6219C85.857 40.6219 87.1632 38.9471 87.1632 36.3576Z" fill="#2A3356"/>
<path id="Vector_6" d="M98.8774 37.8507C99.0673 39.5747 100.717 40.7067 102.971 40.7067C105.131 40.7067 106.685 39.5746 106.685 38.0201C106.685 36.6707 105.747 35.8627 103.528 35.309L101.309 34.7662C98.1651 33.9951 96.7054 32.5022 96.7054 30.0795C96.7054 27.0799 99.28 25.0195 102.935 25.0195C106.554 25.0195 109.034 27.0799 109.118 30.0795H106.531C106.376 28.3445 104.964 27.2973 102.9 27.2973C100.835 27.2973 99.4227 28.3569 99.4227 29.899C99.4227 31.1281 100.325 31.8514 102.532 32.405L104.418 32.8754C107.932 33.7189 109.39 35.1518 109.39 37.6947C109.39 40.9472 106.839 42.9843 102.781 42.9843C98.9837 42.9843 96.4199 40.9951 96.2543 37.8505L98.8774 37.8507Z" fill="#2A3356"/>
<path id="Vector_7" d="M114.923 27.0198V30.0194H117.297V32.0797H114.923V39.0674C114.923 40.153 115.398 40.6588 116.442 40.6588C116.724 40.6538 117.005 40.6338 117.285 40.5986V42.6467C116.815 42.7357 116.339 42.776 115.861 42.767C113.334 42.767 112.348 41.8031 112.348 39.3449V32.0797H110.533V30.0194H112.348V27.0198H114.923Z" fill="#2A3356"/>
<path id="Vector_8" d="M118.67 36.3577C118.67 32.3696 120.984 29.8635 124.591 29.8635C128.21 29.8635 130.513 32.3695 130.513 36.3577C130.513 40.3567 128.223 42.8518 124.591 42.8518C120.961 42.8518 118.67 40.3567 118.67 36.3577ZM127.902 36.3577C127.902 33.6219 126.667 32.0073 124.591 32.0073C122.515 32.0073 121.28 33.6342 121.28 36.3577C121.28 39.1043 122.515 40.7067 124.591 40.7067C126.667 40.7067 127.902 39.1043 127.902 36.3577H127.902Z" fill="#2A3356"/>
<path id="Vector_9" d="M132.626 30.0195H135.07V32.1769H135.129C135.294 31.5031 135.683 30.9076 136.23 30.4906C136.777 30.0735 137.448 29.8604 138.132 29.8868C138.427 29.8858 138.722 29.9184 139.01 29.9839V32.4175C138.637 32.3019 138.248 32.2487 137.858 32.2603C137.486 32.245 137.115 32.3116 136.771 32.4556C136.426 32.5997 136.116 32.8177 135.863 33.0948C135.609 33.3718 135.417 33.7013 135.301 34.0606C135.185 34.42 135.146 34.8006 135.188 35.1765V42.6947H132.626L132.626 30.0195Z" fill="#2A3356"/>
<path id="Vector_10" d="M150.824 38.9717C150.48 41.2727 148.273 42.8518 145.449 42.8518C141.817 42.8518 139.563 40.3813 139.563 36.4178C139.563 32.442 141.829 29.8635 145.341 29.8635C148.795 29.8635 150.967 32.2725 150.967 36.1157V37.0071H142.15V37.1643C142.109 37.6308 142.167 38.1007 142.319 38.5429C142.471 38.9851 142.713 39.3894 143.031 39.7289C143.349 40.0685 143.734 40.3356 144.161 40.5124C144.588 40.6892 145.047 40.7718 145.508 40.7545C146.114 40.8121 146.721 40.6697 147.241 40.3485C147.76 40.0273 148.164 39.5444 148.391 38.9717L150.824 38.9717ZM142.162 35.1887H148.403C148.426 34.7693 148.364 34.3495 148.219 33.9559C148.075 33.5622 147.852 33.203 147.564 32.9009C147.277 32.5989 146.931 32.3604 146.548 32.2005C146.166 32.0406 145.755 31.9627 145.341 31.9717C144.924 31.9692 144.51 32.0506 144.124 32.2112C143.738 32.3719 143.387 32.6086 143.091 32.9077C142.796 33.2067 142.562 33.5623 142.402 33.9538C142.242 34.3453 142.161 34.765 142.162 35.1887V35.1887Z" fill="#2A3356"/>
</g>
</g>
</g>
<g id="&#60;Group&#62;_4">
<g id="Group_5">
<path id="Vector_11" d="M52.157 12.2233C52.6942 12.1842 53.2333 12.2666 53.7354 12.4646C54.2374 12.6626 54.6899 12.9713 55.0603 13.3684C55.4306 13.7654 55.7095 14.241 55.8769 14.7608C56.0443 15.2806 56.096 15.8316 56.0283 16.3741C56.0283 19.0429 54.6077 20.5769 52.157 20.5769H49.1852V12.2233H52.157ZM50.463 19.3955H52.0143C52.3981 19.4188 52.7823 19.3549 53.1388 19.2085C53.4953 19.062 53.8151 18.8367 54.075 18.5489C54.3349 18.2611 54.5284 17.9181 54.6412 17.5448C54.7541 17.1716 54.7836 16.7774 54.7275 16.3911C54.7795 16.0064 54.7471 15.6147 54.6324 15.2442C54.5178 14.8736 54.3239 14.5334 54.0646 14.2479C53.8053 13.9624 53.487 13.7387 53.1325 13.5928C52.778 13.4468 52.3962 13.3823 52.0143 13.4038H50.463V19.3955Z" fill="#2A3356"/>
<path id="Vector_12" d="M57.4718 17.422C57.4328 17.0078 57.4794 16.5898 57.6088 16.1949C57.7382 15.8 57.9475 15.4369 58.2232 15.1289C58.4989 14.8209 58.8349 14.5749 59.2098 14.4065C59.5846 14.2381 59.99 14.1511 60.3999 14.1511C60.8098 14.1511 61.2151 14.2381 61.59 14.4065C61.9648 14.5749 62.3009 14.8209 62.5766 15.1289C62.8522 15.4369 63.0615 15.8 63.1909 16.1949C63.3203 16.5898 63.367 17.0078 63.3279 17.422C63.3677 17.8368 63.3216 18.2553 63.1925 18.6509C63.0635 19.0464 62.8544 19.4101 62.5786 19.7187C62.3028 20.0273 61.9665 20.2739 61.5913 20.4426C61.2161 20.6114 60.8102 20.6986 60.3999 20.6986C59.9895 20.6986 59.5836 20.6114 59.2084 20.4426C58.8332 20.2739 58.4969 20.0273 58.2211 19.7187C57.9454 19.4101 57.7362 19.0464 57.6072 18.6509C57.4781 18.2553 57.432 17.8368 57.4718 17.422ZM62.0675 17.422C62.0675 16.0556 61.4629 15.2564 60.4019 15.2564C59.3368 15.2564 58.7376 16.0556 58.7376 17.4221C58.7376 18.7995 59.3368 19.5925 60.4019 19.5925C61.463 19.5925 62.0676 18.794 62.0676 17.422H62.0675Z" fill="#2A3356"/>
<path id="Vector_13" d="M71.1123 20.5768H69.8411L68.5579 15.9338H68.4609L67.1831 20.5768H65.924L64.2126 14.2727H65.4554L66.5677 19.0831H66.6593L67.9358 14.2727H69.1113L70.3878 19.0831H70.4848L71.5916 14.2727H72.817L71.1123 20.5768Z" fill="#2A3356"/>
<path id="Vector_14" d="M74.2565 14.2728H75.436V15.2743H75.5276C75.6829 14.9146 75.9449 14.613 76.2771 14.4117C76.6092 14.2104 76.9949 14.1193 77.3805 14.1511C77.6826 14.128 77.9859 14.1743 78.268 14.2864C78.5501 14.3986 78.8038 14.5737 79.0102 14.7989C79.2166 15.0241 79.3704 15.2935 79.4603 15.5873C79.5502 15.881 79.5739 16.1915 79.5295 16.4958V20.5768H78.3042V16.8082C78.3042 15.7952 77.8706 15.2913 76.9644 15.2913C76.7593 15.2816 76.5545 15.3171 76.3641 15.3953C76.1738 15.4734 76.0023 15.5924 75.8615 15.7442C75.7207 15.8959 75.6138 16.0768 75.5483 16.2744C75.4828 16.472 75.4601 16.6816 75.4818 16.8889V20.5769H74.2565L74.2565 14.2728Z" fill="#2A3356"/>
<path id="Vector_15" d="M81.482 11.8118H82.7073V20.5768H81.482V11.8118Z" fill="#2A3356"/>
<path id="Vector_16" d="M84.4108 17.422C84.3718 17.0077 84.4185 16.5897 84.5479 16.1948C84.6773 15.7999 84.8866 15.4368 85.1623 15.1288C85.4381 14.8208 85.7741 14.5748 86.149 14.4064C86.5239 14.238 86.9293 14.151 87.3392 14.151C87.7491 14.151 88.1545 14.238 88.5294 14.4064C88.9042 14.5748 89.2403 14.8208 89.516 15.1288C89.7917 15.4368 90.001 15.7999 90.1304 16.1948C90.2599 16.5897 90.3066 17.0077 90.2676 17.422C90.3073 17.8368 90.2611 18.2554 90.132 18.6509C90.003 19.0464 89.7938 19.4102 89.518 19.7187C89.2422 20.0273 88.9059 20.2739 88.5307 20.4426C88.1554 20.6114 87.7496 20.6985 87.3392 20.6985C86.9288 20.6985 86.5229 20.6114 86.1477 20.4426C85.7725 20.2739 85.4361 20.0273 85.1604 19.7187C84.8846 19.4102 84.6754 19.0464 84.5463 18.6509C84.4172 18.2554 84.3711 17.8368 84.4108 17.422ZM89.0065 17.422C89.0065 16.0555 88.4019 15.2564 87.3409 15.2564C86.2758 15.2564 85.6766 16.0556 85.6766 17.4221C85.6766 18.7995 86.2758 19.5925 87.3409 19.5925C88.4019 19.5925 89.0065 18.794 89.0065 17.422H89.0065Z" fill="#2A3356"/>
<path id="Vector_17" d="M91.5575 18.794C91.5575 17.6592 92.3897 17.005 93.8668 16.912L95.5487 16.8136V16.2695C95.5487 15.6036 95.1151 15.2277 94.2775 15.2277C93.5935 15.2277 93.1195 15.4826 92.9835 15.9283H91.7972C91.9224 14.8455 92.9256 14.151 94.3341 14.151C95.8907 14.151 96.7686 14.9378 96.7686 16.2695V20.5768H95.589V19.6908H95.4921C95.2953 20.0086 95.019 20.2677 94.6913 20.4416C94.3637 20.6155 93.9965 20.698 93.6271 20.6806C93.3665 20.7082 93.103 20.6799 92.8538 20.5978C92.6046 20.5156 92.375 20.3813 92.18 20.2035C91.985 20.0258 91.8289 19.8085 91.7217 19.5657C91.6145 19.3229 91.5585 19.06 91.5575 18.794ZM95.5487 18.2553V17.7282L94.0324 17.8267C93.1774 17.8848 92.7896 18.1801 92.7896 18.7358C92.7896 19.3032 93.2743 19.6334 93.9409 19.6334C94.1362 19.6535 94.3335 19.6334 94.5211 19.5745C94.7086 19.5156 94.8825 19.419 95.0325 19.2904C95.1825 19.1618 95.3055 19.0039 95.3942 18.8261C95.4829 18.6483 95.5354 18.4541 95.5487 18.2553Z" fill="#2A3356"/>
<path id="Vector_18" d="M98.379 17.422C98.379 15.4301 99.3876 14.1681 100.956 14.1681C101.344 14.15 101.729 14.2443 102.067 14.4402C102.404 14.6361 102.679 14.9253 102.86 15.2741H102.952V11.8118H104.177V20.5768H103.003V19.5808H102.906C102.711 19.9273 102.426 20.2129 102.082 20.4068C101.739 20.6007 101.349 20.6954 100.956 20.6807C99.3768 20.6808 98.379 19.4188 98.379 17.422ZM99.6448 17.422C99.6448 18.7592 100.266 19.5637 101.304 19.5637C102.337 19.5637 102.975 18.7475 102.975 17.4275C102.975 16.1136 102.33 15.2858 101.304 15.2858C100.272 15.2858 99.6448 16.0959 99.6448 17.422H99.6448Z" fill="#2A3356"/>
<path id="Vector_19" d="M109.247 17.422C109.208 17.0078 109.255 16.5898 109.384 16.1949C109.514 15.8 109.723 15.4369 109.998 15.1289C110.274 14.8209 110.61 14.5749 110.985 14.4065C111.36 14.2381 111.765 14.1511 112.175 14.1511C112.585 14.1511 112.99 14.2381 113.365 14.4065C113.74 14.5749 114.076 14.8209 114.352 15.1289C114.628 15.4369 114.837 15.8 114.966 16.1949C115.096 16.5898 115.142 17.0078 115.103 17.422C115.143 17.8368 115.097 18.2553 114.968 18.6509C114.839 19.0464 114.63 19.4101 114.354 19.7187C114.078 20.0273 113.742 20.2739 113.367 20.4426C112.991 20.6114 112.586 20.6986 112.175 20.6986C111.765 20.6986 111.359 20.6114 110.984 20.4426C110.609 20.2739 110.272 20.0273 109.996 19.7187C109.721 19.4101 109.512 19.0464 109.383 18.6509C109.253 18.2553 109.207 17.8368 109.247 17.422ZM113.843 17.422C113.843 16.0556 113.238 15.2564 112.177 15.2564C111.112 15.2564 110.513 16.0556 110.513 17.4221C110.513 18.7995 111.112 19.5925 112.177 19.5925C113.238 19.5925 113.843 18.794 113.843 17.422Z" fill="#2A3356"/>
<path id="Vector_20" d="M116.747 14.2728H117.927V15.2743H118.018C118.174 14.9146 118.436 14.613 118.768 14.4117C119.1 14.2104 119.486 14.1193 119.871 14.1511C120.173 14.128 120.477 14.1743 120.759 14.2864C121.041 14.3986 121.295 14.5737 121.501 14.7989C121.707 15.0241 121.861 15.2935 121.951 15.5873C122.041 15.881 122.065 16.1915 122.02 16.4958V20.5768H120.795V16.8082C120.795 15.7952 120.361 15.2913 119.455 15.2913C119.25 15.2816 119.045 15.3171 118.855 15.3953C118.665 15.4734 118.493 15.5924 118.352 15.7442C118.211 15.8959 118.105 16.0768 118.039 16.2744C117.974 16.472 117.951 16.6816 117.973 16.8889V20.5769H116.747V14.2728Z" fill="#2A3356"/>
<path id="Vector_21" d="M128.944 12.7032V14.3015H130.29V15.3494H128.944V18.591C128.944 19.2514 129.212 19.5406 129.822 19.5406C129.978 19.54 130.134 19.5305 130.29 19.5118V20.5482C130.069 20.5881 129.847 20.6094 129.623 20.6117C128.26 20.6117 127.718 20.125 127.718 18.9096V15.3494H126.732V14.3014H127.718V12.7032H128.944Z" fill="#2A3356"/>
<path id="Vector_22" d="M131.963 11.8118H133.178V15.2858H133.275C133.438 14.9227 133.707 14.6195 134.046 14.4174C134.384 14.2153 134.776 14.1242 135.168 14.1565C135.468 14.1399 135.769 14.1908 136.048 14.3057C136.327 14.4206 136.577 14.5965 136.781 14.821C136.986 15.0454 137.139 15.3129 137.229 15.6043C137.32 15.8957 137.346 16.2038 137.306 16.5067V20.5768H136.08V16.8136C136.08 15.8067 135.618 15.2967 134.752 15.2967C134.541 15.2792 134.329 15.3086 134.131 15.3829C133.933 15.4571 133.753 15.5745 133.604 15.7267C133.455 15.879 133.341 16.0624 133.269 16.2642C133.197 16.466 133.17 16.6812 133.189 16.895V20.5768H131.963L131.963 11.8118Z" fill="#2A3356"/>
<path id="Vector_23" d="M144.451 18.8747C144.285 19.4509 143.924 19.9493 143.432 20.2827C142.94 20.6161 142.349 20.7633 141.761 20.6986C141.352 20.7095 140.945 20.63 140.569 20.4654C140.194 20.3009 139.858 20.0553 139.585 19.7457C139.312 19.4361 139.109 19.0699 138.989 18.6726C138.87 18.2752 138.837 17.8562 138.893 17.4447C138.838 17.0318 138.872 16.6119 138.991 16.2134C139.11 15.8148 139.312 15.447 139.584 15.1347C139.855 14.8224 140.19 14.5729 140.564 14.4032C140.939 14.2335 141.345 14.1476 141.755 14.1511C143.483 14.1511 144.525 15.3495 144.525 17.3291V17.7632H140.141V17.833C140.122 18.0643 140.15 18.2972 140.225 18.5166C140.3 18.7361 140.418 18.9373 140.574 19.1073C140.73 19.2773 140.919 19.4125 141.129 19.504C141.339 19.5956 141.566 19.6415 141.794 19.639C142.087 19.6747 142.384 19.6211 142.647 19.485C142.91 19.3489 143.128 19.1365 143.272 18.8747L144.451 18.8747ZM140.141 16.8431H143.277C143.292 16.6315 143.264 16.419 143.194 16.2192C143.123 16.0194 143.013 15.8367 142.869 15.6829C142.725 15.5291 142.551 15.4076 142.358 15.3261C142.165 15.2447 141.957 15.2051 141.749 15.21C141.537 15.2073 141.326 15.2477 141.13 15.3288C140.934 15.4099 140.755 15.5301 140.606 15.6823C140.456 15.8345 140.337 16.0157 140.258 16.215C140.178 16.4144 140.138 16.6279 140.141 16.8431H140.141Z" fill="#2A3356"/>
</g>
</g>
</g>
</g>
<defs>
<clipPath id="clip0_0_1899">
<rect width="165" height="56" fill="white"/>
</clipPath>
</defs>
</svg>
