<svg width="29" height="29" viewBox="0 0 29 29" fill="none" xmlns="http://www.w3.org/2000/svg">
<g id="telephone-call 1" clip-path="url(#clip0_0_1937)">
<g id="Layer 3">
<path id="Vector" d="M14.5 0.90625C11.8114 0.90625 9.18321 1.70351 6.94773 3.19721C4.71224 4.69091 2.9699 6.81396 1.94102 9.2979C0.91214 11.7818 0.642938 14.5151 1.16746 17.152C1.69197 19.7889 2.98665 22.2111 4.88778 24.1122C6.7889 26.0134 9.21107 27.308 11.848 27.8326C14.4849 28.3571 17.2182 28.0879 19.7021 27.059C22.1861 26.0301 24.3091 24.2878 25.8028 22.0523C27.2965 19.8168 28.0938 17.1886 28.0938 14.5C28.0938 10.8947 26.6616 7.43709 24.1123 4.88777C21.5629 2.33844 18.1053 0.90625 14.5 0.90625ZM15.0827 9.25644C16.3184 9.25788 17.5031 9.74939 18.3769 10.6232C19.2506 11.4969 19.7421 12.6816 19.7436 13.9173H18.5781C18.5772 12.9905 18.2086 12.102 17.5533 11.4467C16.898 10.7914 16.0095 10.4228 15.0827 10.4219V9.25644ZM18.8573 22.6562C18.8219 22.6562 15.3229 22.5964 10.8234 18.1767C6.40357 13.6789 6.34376 10.1781 6.34376 10.1428C6.34376 9.70684 9.06251 6.34375 9.66335 6.34375C9.87179 6.34375 10.034 6.48513 10.2116 6.69719C10.6394 7.2065 12.5307 10.1917 12.4437 10.6892C12.402 10.923 12.2036 11.1007 11.6344 11.5782C11.354 11.7987 11.0916 12.0411 10.8496 12.3033C10.9655 12.7828 11.1377 13.247 11.3626 13.6862C12.2004 15.4089 13.5925 16.8004 15.3156 17.6374C15.7548 17.8623 16.219 18.0345 16.6986 18.1504C16.9607 17.9084 17.2031 17.646 17.4236 17.3656C17.9012 16.7964 18.0788 16.598 18.3126 16.5563C18.8101 16.4657 21.7953 18.3606 22.3046 18.7884C22.5167 18.9696 22.6581 19.1282 22.6581 19.3367C22.6563 19.9375 19.2932 22.6562 18.8573 22.6562ZM21.4908 13.9173C21.4889 12.2183 20.8132 10.5895 19.6118 9.38819C18.4105 8.18686 16.7817 7.51111 15.0827 7.50919V6.34375C17.0906 6.34615 19.0156 7.14484 20.4354 8.56463C21.8552 9.98443 22.6539 11.9094 22.6563 13.9173H21.4908Z" fill="#4181FC"/>
</g>
</g>
<defs>
<clipPath id="clip0_0_1937">
<rect width="29" height="29" fill="white"/>
</clipPath>
</defs>
</svg>
