<svg width="14" height="15" viewBox="0 0 14 15" fill="none" xmlns="http://www.w3.org/2000/svg">
<g id="Search">
<g id="Group 3">
<mask id="mask0_1_27" style="mask-type:luminance" maskUnits="userSpaceOnUse" x="0" y="0" width="14" height="14">
<path id="Clip 2" fill-rule="evenodd" clip-rule="evenodd" d="M0.333344 0.333252H13.3179V13.3179H0.333344V0.333252Z" fill="white"/>
</mask>
<g mask="url(#mask0_1_27)">
<path id="Fill 1" fill-rule="evenodd" clip-rule="evenodd" d="M6.82589 1.33325C3.79722 1.33325 1.33322 3.79659 1.33322 6.82525C1.33322 9.85392 3.79722 12.3179 6.82589 12.3179C9.85389 12.3179 12.3179 9.85392 12.3179 6.82525C12.3179 3.79659 9.85389 1.33325 6.82589 1.33325M6.82589 13.3179C3.24589 13.3179 0.333221 10.4053 0.333221 6.82525C0.333221 3.24525 3.24589 0.333252 6.82589 0.333252C10.4059 0.333252 13.3179 3.24525 13.3179 6.82525C13.3179 10.4053 10.4059 13.3179 6.82589 13.3179" fill="#3A4352"/>
</g>
</g>
<g id="Group 6">
<mask id="mask1_1_27" style="mask-type:luminance" maskUnits="userSpaceOnUse" x="10" y="10" width="4" height="5">
<path id="Clip 5" fill-rule="evenodd" clip-rule="evenodd" d="M10.4933 10.8044H13.8427V14.1476H10.4933V10.8044Z" fill="white"/>
</mask>
<g mask="url(#mask1_1_27)">
<path id="Fill 4" fill-rule="evenodd" clip-rule="evenodd" d="M13.3428 14.1476C13.2155 14.1476 13.0875 14.0989 12.9895 14.0016L10.6402 11.6589C10.4448 11.4636 10.4442 11.1469 10.6395 10.9516C10.8342 10.7549 11.1508 10.7563 11.3468 10.9503L13.6962 13.2936C13.8915 13.4889 13.8922 13.8049 13.6968 14.0003C13.5995 14.0989 13.4708 14.1476 13.3428 14.1476" fill="#3A4352"/>
</g>
</g>
</g>
</svg>
