<svg width="18" height="17" viewBox="0 0 18 17" fill="none" xmlns="http://www.w3.org/2000/svg">
<g id="Calling">
<g id="Group 3">
<mask id="mask0_1_1943" style="mask-type:luminance" maskUnits="userSpaceOnUse" x="10" y="0" width="8" height="8">
<path id="Clip 2" fill-rule="evenodd" clip-rule="evenodd" d="M10.3635 0.583008H17.1236V7.33815H10.3635V0.583008Z" fill="white"/>
</mask>
<g mask="url(#mask0_1_1943)">
<path id="Fill 1" fill-rule="evenodd" clip-rule="evenodd" d="M16.5296 7.33815C16.2311 7.33815 15.9746 7.11411 15.9406 6.8109C15.6405 4.13824 13.5648 2.06407 10.8913 1.76719C10.566 1.73078 10.3308 1.43786 10.3672 1.11169C10.4029 0.786319 10.6934 0.546444 11.0227 0.58761C14.2512 0.946235 16.7584 3.45028 17.1202 6.6779C17.1566 7.00407 16.9222 7.29778 16.5969 7.33419C16.5747 7.33657 16.5517 7.33815 16.5296 7.33815" fill="white"/>
</g>
</g>
<path id="Fill 4" fill-rule="evenodd" clip-rule="evenodd" d="M13.727 7.34717C13.4483 7.34717 13.2006 7.15084 13.1451 6.86742C12.9171 5.69575 12.0139 4.79246 10.8438 4.56525C10.5216 4.50271 10.3118 4.19159 10.3743 3.86938C10.4369 3.54717 10.7535 3.33659 11.0702 3.39992C12.7176 3.71975 13.9898 4.99117 14.3105 6.63942C14.373 6.96242 14.1632 7.27354 13.8418 7.33609C13.803 7.34321 13.765 7.34717 13.727 7.34717" fill="white"/>
<g id="Group 8">
<mask id="mask1_1_1943" style="mask-type:luminance" maskUnits="userSpaceOnUse" x="0" y="0" width="17" height="17">
<path id="Clip 7" fill-rule="evenodd" clip-rule="evenodd" d="M0.583618 0.583008H16.813V16.8126H0.583618V0.583008Z" fill="white"/>
</mask>
<g mask="url(#mask1_1_1943)">
<path id="Fill 6" fill-rule="evenodd" clip-rule="evenodd" d="M2.45123 3.00673C2.45281 3.00673 2.41323 3.04789 2.36335 3.09698C2.17177 3.28302 1.77514 3.67014 1.77118 4.48002C1.76485 5.61289 2.50981 7.71635 6.09685 11.3026C9.66648 14.8714 11.7668 15.6251 12.9028 15.6251H12.9194C13.7293 15.6204 14.1156 15.2237 14.3017 15.0329C14.3579 14.9751 14.4038 14.9316 14.4363 14.9055C15.2256 14.1114 15.6293 13.5216 15.6254 13.1424C15.6206 12.7561 15.1401 12.3001 14.4759 11.6676C14.2645 11.4673 14.0349 11.248 13.7926 11.0057C13.1641 10.3795 12.8545 10.4864 12.1697 10.7271C11.2237 11.0588 9.92773 11.5132 7.90818 9.49206C5.88785 7.47252 6.34068 6.17656 6.67081 5.22973C6.90989 4.54573 7.01914 4.2346 6.39135 3.60602C6.14593 3.3606 5.92506 3.12785 5.7216 2.9141C5.09302 2.25385 4.63939 1.77648 4.25543 1.77094H4.2491C3.86989 1.77094 3.28089 2.17627 2.44727 3.00989C2.44964 3.00752 2.45043 3.00673 2.45123 3.00673V3.00673ZM12.9028 16.8126C10.93 16.8126 8.35785 15.2419 5.25769 12.1426C2.14485 9.03052 0.57181 6.45048 0.583685 4.47369C0.59081 3.16744 1.2756 2.49848 1.53289 2.24752C1.54635 2.23089 1.59227 2.18577 1.6081 2.16994C2.74414 1.03389 3.52473 0.56681 4.27048 0.583435C5.15477 0.59531 5.78494 1.25794 6.58214 2.09631C6.77927 2.30294 6.99223 2.52856 7.23052 2.76606C8.38556 3.92189 8.05702 4.86477 7.79181 5.6216C7.50364 6.44731 7.25427 7.15981 8.74735 8.65289C10.2404 10.146 10.9521 9.8966 11.7771 9.60606C12.5347 9.34164 13.4752 9.01073 14.6326 10.1666C14.8677 10.4017 15.0894 10.6123 15.2952 10.8078C16.1368 11.609 16.8018 12.2415 16.8129 13.1282C16.8216 13.8834 16.3624 14.6545 15.2287 15.7882L14.7268 15.4478L15.1519 15.8618C14.901 16.1191 14.2336 16.8047 12.9266 16.8126H12.9028Z" fill="white"/>
</g>
</g>
</g>
</svg>
