<svg width="184" height="56" viewBox="0 0 184 56" fill="none" xmlns="http://www.w3.org/2000/svg">
<g id="Frame" clip-path="url(#clip0_0_1872)">
<g id="Group">
<g id="Group_2">
<path id="Vector" d="M176.739 55.5255H7.26122C3.46492 55.5255 0.482117 52.4977 0.482117 48.6441V7.35597C0.482117 3.50241 3.46492 0.474609 7.26122 0.474609H176.739C180.535 0.474609 183.518 3.50241 183.518 7.35597V48.6441C183.518 52.36 180.535 55.5255 176.739 55.5255Z" fill="white"/>
</g>
<g id="Group_3">
<g id="Group_4">
<path id="Vector_2" d="M176.739 1.57563C179.857 1.57563 182.433 4.19054 182.433 7.35597V48.6441C182.433 51.8095 179.857 54.4244 176.739 54.4244H7.26122C4.14283 54.4244 1.56677 51.8095 1.56677 48.6441V7.35597C1.56677 4.19054 4.14283 1.57563 7.26122 1.57563H176.739ZM176.739 0.474609H7.26122C3.46492 0.474609 0.482117 3.50241 0.482117 7.35597V48.6441C0.482117 52.4977 3.46492 55.5255 7.26122 55.5255H176.739C180.535 55.5255 183.518 52.4977 183.518 48.6441V7.35597C183.518 3.64003 180.535 0.474609 176.739 0.474609Z" fill="#2A3356"/>
</g>
</g>
<g id="Group_5">
<path id="Vector_3" d="M64.748 14.5126C64.748 15.6137 64.4768 16.5771 63.7989 17.2652C62.9854 18.091 62.0363 18.5038 60.8161 18.5038C59.5958 18.5038 58.6468 18.091 57.8333 17.2652C57.0198 16.4394 56.613 15.476 56.613 14.2374C56.613 12.9987 57.0198 12.0354 57.8333 11.2096C58.6468 10.3838 59.5958 9.97095 60.8161 9.97095C61.3584 9.97095 61.9007 10.1086 62.4431 10.3838C62.9854 10.6591 63.3921 10.9343 63.6633 11.3472L62.9854 12.0354C62.4431 11.3472 61.7652 11.072 60.8161 11.072C60.0026 11.072 59.1891 11.3472 58.6468 12.0354C57.9689 12.5859 57.6977 13.4116 57.6977 14.375C57.6977 15.3384 57.9689 16.1642 58.6468 16.7147C59.3247 17.2652 60.0026 17.6781 60.8161 17.6781C61.7652 17.6781 62.4431 17.4028 63.121 16.7147C63.5277 16.3018 63.7989 15.7513 63.7989 15.0632H60.8161V14.0998H64.748C64.748 14.0998 64.748 14.375 64.748 14.5126Z" fill="#2A3356" stroke="#2A3356" stroke-width="0.2" stroke-miterlimit="10"/>
<path id="Vector_4" d="M70.9848 11.072H67.324V13.6869H70.7136V14.6503H67.324V17.2653H70.9848V18.3663H66.2394V10.1086H70.9848V11.072Z" fill="#2A3356" stroke="#2A3356" stroke-width="0.2" stroke-miterlimit="10"/>
<path id="Vector_5" d="M75.4589 18.3663H74.3742V11.072H72.0693V10.1086H77.7638V11.072H75.4589V18.3663Z" fill="#2A3356" stroke="#2A3356" stroke-width="0.2" stroke-miterlimit="10"/>
<path id="Vector_6" d="M81.6957 18.3663V10.1086H82.7804V18.3663H81.6957Z" fill="#2A3356" stroke="#2A3356" stroke-width="0.2" stroke-miterlimit="10"/>
<path id="Vector_7" d="M87.3902 18.3663H86.3055V11.072H84.0006V10.1086H89.5595V11.072H87.2546V18.3663H87.3902Z" fill="#2A3356" stroke="#2A3356" stroke-width="0.2" stroke-miterlimit="10"/>
<path id="Vector_8" d="M100.27 17.2652C99.457 18.091 98.5079 18.5038 97.2876 18.5038C96.0674 18.5038 95.1183 18.091 94.3048 17.2652C93.4913 16.4394 93.0846 15.476 93.0846 14.2374C93.0846 12.9987 93.4913 12.0354 94.3048 11.2096C95.1183 10.3838 96.0674 9.97095 97.2876 9.97095C98.5079 9.97095 99.457 10.3838 100.27 11.2096C101.084 12.0354 101.491 12.9987 101.491 14.2374C101.491 15.476 101.084 16.4394 100.27 17.2652ZM95.1183 16.5771C95.6607 17.1276 96.4741 17.5404 97.2876 17.5404C98.1011 17.5404 98.9146 17.2652 99.457 16.5771C99.9993 16.0265 100.406 15.2008 100.406 14.2374C100.406 13.274 100.135 12.4482 99.457 11.8977C98.9146 11.3472 98.1011 10.9343 97.2876 10.9343C96.4741 10.9343 95.6607 11.2096 95.1183 11.8977C94.576 12.4482 94.1692 13.274 94.1692 14.2374C94.1692 15.2008 94.4404 16.0265 95.1183 16.5771Z" fill="#2A3356" stroke="#2A3356" stroke-width="0.2" stroke-miterlimit="10"/>
<path id="Vector_9" d="M102.982 18.3663V10.1086H104.202L108.134 16.5771V14.9256V10.1086H109.219V18.3663H108.134L103.931 11.6225V13.2741V18.3663H102.982Z" fill="#2A3356" stroke="#2A3356" stroke-width="0.2" stroke-miterlimit="10"/>
</g>
<path id="Vector_10" d="M92.8136 30.4774C89.5596 30.4774 86.9836 32.9547 86.9836 36.3953C86.9836 39.6984 89.5596 42.3133 92.8136 42.3133C96.0676 42.3133 98.6436 39.836 98.6436 36.3953C98.6436 32.817 96.0676 30.4774 92.8136 30.4774ZM92.8136 39.836C91.051 39.836 89.5596 38.3221 89.5596 36.2577C89.5596 34.1933 91.051 32.6794 92.8136 32.6794C94.5761 32.6794 96.0676 34.0557 96.0676 36.2577C96.0676 38.3221 94.5761 39.836 92.8136 39.836ZM80.2045 30.4774C76.9505 30.4774 74.3744 32.9547 74.3744 36.3953C74.3744 39.6984 76.9505 42.3133 80.2045 42.3133C83.4584 42.3133 86.0345 39.836 86.0345 36.3953C86.0345 32.817 83.4584 30.4774 80.2045 30.4774ZM80.2045 39.836C78.4419 39.836 76.9505 38.3221 76.9505 36.2577C76.9505 34.1933 78.4419 32.6794 80.2045 32.6794C81.967 32.6794 83.4584 34.0557 83.4584 36.2577C83.4584 38.3221 81.967 39.836 80.2045 39.836ZM65.1548 32.2665V34.7438H70.9849C70.8493 36.1201 70.307 37.2211 69.629 37.9092C68.8156 38.735 67.4597 39.6984 65.1548 39.6984C61.4941 39.6984 58.7825 36.8082 58.7825 33.0923C58.7825 29.3764 61.6297 26.4862 65.1548 26.4862C67.053 26.4862 68.5444 27.312 69.629 28.2754L71.3916 26.4862C69.9002 25.1099 68.0021 24.0089 65.2904 24.0089C60.4095 24.0089 56.2064 28.1377 56.2064 33.0923C56.2064 38.0469 60.4095 42.1757 65.2904 42.1757C68.0021 42.1757 69.9002 41.3499 71.5272 39.5608C73.1542 37.9092 73.6965 35.5696 73.6965 33.7804C73.6965 33.2299 73.6965 32.6794 73.5609 32.2665H65.1548ZM126.709 34.1933C126.167 32.817 124.811 30.4774 121.828 30.4774C118.845 30.4774 116.405 32.817 116.405 36.3953C116.405 39.6984 118.845 42.3133 122.099 42.3133C124.675 42.3133 126.302 40.6618 126.845 39.6984L124.947 38.3221C124.269 39.2855 123.455 39.9737 122.099 39.9737C120.743 39.9737 119.93 39.4231 119.252 38.1845L126.98 34.8815L126.709 34.1933ZM118.845 36.1201C118.845 33.9181 120.608 32.6794 121.828 32.6794C122.777 32.6794 123.726 33.2299 123.997 33.9181L118.845 36.1201ZM112.473 41.7628H115.049V24.5594H112.473V41.7628ZM108.406 31.716C107.728 31.0279 106.643 30.3398 105.287 30.3398C102.44 30.3398 99.7283 32.9547 99.7283 36.2577C99.7283 39.5608 102.304 42.0381 105.287 42.0381C106.643 42.0381 107.728 41.3499 108.27 40.6618H108.406V41.4876C108.406 43.6896 107.185 44.9282 105.287 44.9282C103.796 44.9282 102.711 43.8272 102.44 42.8638L100.271 43.8272C100.949 45.3411 102.575 47.2679 105.423 47.2679C108.406 47.2679 110.846 45.4787 110.846 41.2123V30.7526H108.406V31.716ZM105.423 39.836C103.66 39.836 102.169 38.3221 102.169 36.2577C102.169 34.1933 103.66 32.6794 105.423 32.6794C107.185 32.6794 108.541 34.1933 108.541 36.2577C108.541 38.3221 107.185 39.836 105.423 39.836ZM138.505 24.5594H132.404V41.7628H134.98V35.2943H138.505C141.352 35.2943 144.064 33.2299 144.064 29.9269C144.064 26.6238 141.352 24.5594 138.505 24.5594ZM138.64 32.817H134.98V26.8991H138.64C140.538 26.8991 141.623 28.5506 141.623 29.7892C141.488 31.3031 140.403 32.817 138.64 32.817ZM154.232 30.3398C152.334 30.3398 150.436 31.1655 149.758 32.9547L152.063 33.9181C152.605 32.9547 153.419 32.6794 154.368 32.6794C155.724 32.6794 156.944 33.5052 157.079 34.8815V35.0191C156.673 34.7438 155.588 34.3309 154.503 34.3309C152.063 34.3309 149.622 35.7072 149.622 38.1845C149.622 40.5242 151.656 42.0381 153.826 42.0381C155.588 42.0381 156.402 41.2123 157.079 40.3865H157.215V41.7628H159.656V35.1567C159.384 32.1289 157.079 30.3398 154.232 30.3398ZM153.961 39.836C153.148 39.836 151.927 39.4231 151.927 38.3221C151.927 36.9459 153.419 36.533 154.639 36.533C155.724 36.533 156.266 36.8082 156.944 37.0835C156.673 38.735 155.317 39.836 153.961 39.836ZM168.197 30.7526L165.35 38.1845H165.214L162.232 30.7526H159.52L163.994 41.2123L161.418 46.9926H163.994L170.909 30.7526H168.197ZM145.419 41.7628H147.995V24.5594H145.419V41.7628Z" fill="#2A3356"/>
<g id="Group_6">
<path id="Vector_11" d="M14.5826 10.7966C14.1758 11.2095 13.9047 11.8976 13.9047 12.7234V43.139C13.9047 43.9648 14.1758 44.6529 14.5826 45.0658L14.7182 45.2034L31.5303 28.1376V28V27.8624L14.5826 10.7966Z" fill="url(#paint0_linear_0_1872)"/>
<path id="Vector_12" d="M37.0892 33.9179L31.5303 28.2752V27.9999V27.8623L37.0892 22.2196L37.2248 22.3572L43.8683 26.2108C45.7665 27.3118 45.7665 29.101 43.8683 30.202L37.0892 33.9179Z" fill="url(#paint1_linear_0_1872)"/>
<path id="Vector_13" d="M37.2248 33.7803L31.5304 28L14.5826 45.2034C15.2605 45.8915 16.2096 45.8915 17.4298 45.341L37.2248 33.7803Z" fill="url(#paint2_linear_0_1872)"/>
<path id="Vector_14" d="M37.2248 22.2196L17.4298 10.7965C16.2096 10.1084 15.2605 10.246 14.5826 10.9342L31.5304 27.9999L37.2248 22.2196Z" fill="url(#paint3_linear_0_1872)"/>
<g id="Group_7">
<path id="Vector_15" opacity="0.2" d="M37.0892 33.6427L17.4298 44.9281C16.3451 45.6163 15.3961 45.4786 14.7182 44.9281L14.5826 45.0658L14.7182 45.2034C15.3961 45.7539 16.3451 45.8915 17.4298 45.2034L37.0892 33.6427Z" fill="white"/>
<path id="Vector_16" opacity="0.12" d="M14.5827 44.9281C14.176 44.5152 14.0404 43.8271 14.0404 43.0013V43.139C14.0404 43.9647 14.3116 44.6529 14.7183 45.0658V44.9281H14.5827Z" fill="white"/>
</g>
<path id="Vector_17" opacity="0.12" d="M43.8683 29.7891L37.0892 33.6427L37.2248 33.7803L43.8683 29.9268C44.8174 29.3763 45.2242 28.6881 45.2242 28C45.2242 28.6881 44.6818 29.2386 43.8683 29.7891Z" fill="white"/>
<path id="Vector_18" opacity="0.25" d="M17.4292 10.9342L43.8677 26.2108C44.6812 26.7613 45.2236 27.3118 45.2236 28C45.2236 27.3118 44.8168 26.6237 43.8677 26.0732L17.4292 10.7966C15.5311 9.69557 14.0397 10.659 14.0397 12.861V12.9986C14.0397 10.7966 15.5311 9.83319 17.4292 10.9342Z" fill="#2A3356"/>
</g>
</g>
</g>
<defs>
<linearGradient id="paint0_linear_0_1872" x1="30.0385" y1="12.4615" x2="6.94399" y2="35.2129" gradientUnits="userSpaceOnUse">
<stop stop-color="#00A0FF"/>
<stop offset="0.00657445" stop-color="#00A1FF"/>
<stop offset="0.2601" stop-color="#00BEFF"/>
<stop offset="0.5122" stop-color="#00D2FF"/>
<stop offset="0.7604" stop-color="#00DFFF"/>
<stop offset="1" stop-color="#00E3FF"/>
</linearGradient>
<linearGradient id="paint1_linear_0_1872" x1="46.3554" y1="28.0019" x2="13.5488" y2="28.0019" gradientUnits="userSpaceOnUse">
<stop stop-color="#FFE000"/>
<stop offset="0.4087" stop-color="#FFBD00"/>
<stop offset="0.7754" stop-color="#FFA500"/>
<stop offset="1" stop-color="#FF9C00"/>
</linearGradient>
<linearGradient id="paint2_linear_0_1872" x1="34.143" y1="31.1601" x2="2.82494" y2="62.0128" gradientUnits="userSpaceOnUse">
<stop stop-color="#FF3A44"/>
<stop offset="1" stop-color="#C31162"/>
</linearGradient>
<linearGradient id="paint3_linear_0_1872" x1="10.3759" y1="0.716995" x2="24.3608" y2="14.494" gradientUnits="userSpaceOnUse">
<stop stop-color="#32A071"/>
<stop offset="0.0685" stop-color="#2DA771"/>
<stop offset="0.4762" stop-color="#15CF74"/>
<stop offset="0.8009" stop-color="#06E775"/>
<stop offset="1" stop-color="#00F076"/>
</linearGradient>
<clipPath id="clip0_0_1872">
<rect width="184" height="56" fill="white"/>
</clipPath>
</defs>
</svg>
